# xmcd
#
# Track frame offsets:
#	150
#	22996
#	37705
#	50366
#	63554
#	78889
#	92078
#	115988
#	131578
#	144794
#	156500
#
# Disc length: 2369 seconds
# Revision: 0
# Processed by: cddbd v1.5.2PL0 Copyright (c) Steve Scherf et al.
# Submitted via: dBpowerAMP V12.0
#
DISCID=84093f0b
DTITLE=Alan Wilson - The Blind Owl
DYEAR=2013
DGENRE=Blues
TTITLE0=On The Road Again
TTITLE1=Help me
TTITLE2=An Owl Song
TTITLE3=Going up The Country
TTITLE4=My Mistake
TTITLE5=Change my Ways
TTITLE6=Get Off my Back
TTITLE7=Time Was
TTITLE8=Do Not Enter
TTITLE9=Shake it And Break it
TTITLE10=Nebulosity/Rollin' and Tumblin'/Five Owls
EXTD=
EXTT0=
EXTT1=
EXTT2=
EXTT3=
EXTT4=
EXTT5=
EXTT6=
EXTT7=
EXTT8=
EXTT9=
EXTT10=
PLAYORDER=
